<svg fill="none" height="22" viewBox="0 0 23 22" width="23" xmlns="http://www.w3.org/2000/svg"><path d="m6.0641 0c-1.7205 0-3.40928.579076-4.58074 1.98481-1.164741 1.39768-1.680966 3.44834-1.4143244 6.11469.5519984 5.5199 5.3933844 9.7441 10.4164644 12.758l.5145.3087.5145-.3087c2.5464-1.5278 5.0113-3.3365 6.914-5.436 1.9042-2.1012 3.2887-4.5431 3.5666-7.322.2666-2.66635-.2496-4.71701-1.4143-6.11469-1.1715-1.405734-2.8603-1.98481-4.5808-1.98481-1.7421 0-3.1118.588468-4.1158 1.5152-.3381.31211-.6286.65677-.876 1.02099-.2405-.36109-.5231-.70349-.8531-1.01422-.99012-.93235-2.34758-1.52197-4.091-1.52197z" fill="#241c15"/></svg>