<svg fill="none" height="44" viewBox="0 0 164 44" width="164" xmlns="http://www.w3.org/2000/svg" xmlns:xlink="http://www.w3.org/1999/xlink"><clipPath id="a"><path d="m0 0h164v44h-164z"/></clipPath><g clip-path="url(#a)" fill="#000"><path d="m63.5284 16.8149c-2.1039 0-3.1433 1.6523-3.6216 2.7191-.2662.5962-.3417 1.0667-.5575 1.0667-.3057 0-.0863-.4094-.3363-1.3164-.3291-1.1943-1.3181-2.4694-3.4184-2.4694-2.2101 0-3.156 1.8642-3.6037 2.8897-.3075.7004-.3075.8961-.5431.8961-.3417 0-.0593-.5567.0953-1.2104.3039-1.2877.0719-2.2718.0719-2.2718h-3.5029v13.1551h4.7815s0-5.4973 0-6.5444c0-1.2912.5413-2.9291 1.4674-2.9291 1.0699 0 1.2857.8207 1.2857 2.3419v7.1352h4.8013s0-5.5315 0-6.548c0-1.1494.4694-2.9291 1.4746-2.9291 1.0861 0 1.2785 1.1548 1.2785 2.3419v7.1316h4.715s0-5.2118 0-7.7351c-.0036-3.4338-1.2156-5.7236-4.3877-5.7236z"/><path d="m144.681 16.8149c-2.103 0-3.143 1.6523-3.621 2.7191-.266.5962-.342 1.0667-.558 1.0667-.305 0-.1-.519-.336-1.3164-.351-1.1871-1.221-2.4694-3.418-2.4694-2.21 0-3.156 1.8642-3.604 2.8897-.308.7004-.308.8961-.543.8961-.342 0-.059-.5567.095-1.2104.304-1.2877.072-2.2718.072-2.2718h-3.503v13.1551h4.782s0-5.4973 0-6.5444c0-1.2912.541-2.9291 1.467-2.9291 1.07 0 1.286.8207 1.286 2.3419v7.1352h4.801s0-5.5315 0-6.548c0-1.1494.469-2.9291 1.475-2.9291 1.086 0 1.278 1.1548 1.278 2.3419v7.1316h4.715s0-5.2118 0-7.7351c-.002-3.4338-1.214-5.7236-4.388-5.7236z"/><path d="m76.0765 16.8188c-3.6631 0-6.2903 1.3452-6.2903 1.3452v3.9528s2.9024-1.6666 5.2563-1.6666c1.8791 0 2.1093 1.0129 2.0248 1.8516 0 0-.5413-.1437-2.1957-.1437-3.8968 0-5.864 1.769-5.864 4.6048 0 2.6902 2.21 3.8145 4.073 3.8145 2.7171 0 3.913-1.8247 4.2798-2.6903.2554-.5998.3003-1.0057.5305-1.0057.2607 0 .1726.2909.16.8872-.0215 1.047.027 1.8372.1943 2.5035h3.6036v-6.4743c0-4.0372-1.4332-6.979-5.7723-6.979zm-1.1635 10.3805c-1.1437.264-1.7353-.088-1.7353-.8441 0-1.0363 1.0736-1.4511 2.6057-1.4511.6761 0 1.3109.0574 1.3109.0574 0 .4418-.9657 1.9558-2.1813 2.2378z"/><path d="m94.5049 13.1372h-4.7815v17.1403h4.7815z"/><path d="m99.7685 23.699c0-1.1835 1.1005-2.2593 3.1195-2.2593 2.202 0 3.971 1.0578 4.368 1.2985v-4.5742s-1.399-1.3452-4.835-1.3452c-3.6235 0-6.641 2.1174-6.641 6.6755 0 4.558 2.7388 7.0849 6.632 7.0849 3.041 0 4.853-1.6684 4.853-1.6684v-4.3462c-.573.3197-2.17 1.4278-4.353 1.4278-2.313 0-3.1435-1.0614-3.1435-2.2934z"/><path d="m116.942 16.8187c-2.768 0-3.822 2.6202-4.034 3.0746s-.318.7166-.491.7112c-.302-.0108-.091-.5586.027-.9141.223-.6717.694-2.4317.694-4.5958 0-1.4673-.199-1.9593-.199-1.9593h-4.127v17.1402h4.781s0-5.4793 0-6.5443c0-1.0668.426-2.9292 1.631-2.9292.998 0 1.311.7382 1.311 2.2252v7.2483h4.782s0-4.0085 0-6.9628c-.002-3.3763-.563-6.494-4.375-6.494z"/><path d="m122.869 17.1367v13.139h4.781v-13.139s-.804.4688-2.386.4688c-1.583 0-2.395-.4688-2.395-.4688z"/><path d="m125.244 16.8189c1.617 0 2.928-.8539 2.928-1.9072 0-1.0534-1.311-1.9073-2.928-1.9073s-2.927.8539-2.927 1.9073c0 1.0533 1.31 1.9072 2.927 1.9072z"/><path d="m83.3955 17.1367v13.139h4.7816v-13.139s-.8039.4688-2.3863.4688c-1.5807 0-2.3953-.4688-2.3953-.4688z"/><path d="m85.7728 16.8189c1.6168 0 2.9275-.8539 2.9275-1.9072 0-1.0534-1.3107-1.9073-2.9275-1.9073-1.6169 0-2.9276.8539-2.9276 1.9073 0 1.0533 1.3107 1.9072 2.9276 1.9072z"/><path d="m158.566 16.8149c-2.459 0-3.584 1.8409-4.073 2.8897-.324.6932-.308.8961-.543.8961-.342 0-.06-.5567.095-1.2104.302-1.2877.072-2.2718.072-2.2718h-3.503v16.7864h4.781s0-2.7477 0-5.3231c.567.959 1.613 1.9827 3.23 1.9827 3.458 0 5.197-2.922 5.197-6.8694 0-4.4718-2.082-6.8802-5.256-6.8802zm-1.313 10.6337c-1.097 0-1.903-1.3883-1.903-3.3243 0-1.8785.829-3.3224 1.865-3.3224 1.331 0 1.897 1.2194 1.897 3.3224.002 2.1893-.521 3.3243-1.859 3.3243z"/><path d="m31.2212 20.7894c.3219-.0378.6294-.0395.9117 0 .1636-.3754.1924-1.0219.0449-1.7259-.2193-1.047-.5161-1.681-1.1275-1.5822-.6132.0988-.6347.8566-.4154 1.9037.1223.589.3417 1.0919.5863 1.4044z"/><path d="m25.9613 21.6174c.4387.1921.7085.3196.8128.2083.0683-.07.0467-.2011-.0576-.3718-.2157-.352-.6617-.7111-1.1329-.9105-.9656-.4148-2.1165-.2766-3.0048.361-.2931.2137-.5719.5118-.5323.6914.0126.0593.0575.1024.16.1168.241.0269 1.0862-.3987 2.059-.458.6888-.0431 1.257.1706 1.6958.3628z"/><path d="m25.08 22.1204c-.57.0898-.8865.2784-1.0879.4526-.1726.1508-.2787.3179-.2787.4346 0 .0557.0252.088.0431.1042.0252.0233.0576.0359.0935.0359.1295 0 .4172-.115.4172-.115.7949-.2837 1.3182-.2496 1.8378-.1903.2878.0323.4226.0503.4856-.0485.018-.0288.0413-.0898-.0162-.1814-.1313-.2191-.7085-.5855-1.4944-.4921z"/><path d="m29.4444 23.9649c.3885.1904.8146.115.9531-.167s-.0629-.6645-.4496-.8549c-.3884-.1903-.8146-.1149-.953.1671-.1403.2819.0629.6645.4495.8548z"/><path d="m31.9368 21.7901c-.3147-.0054-.5755.3394-.5826.7704-.0072.4311.2427.7849.5574.7902.3147.0054.5755-.3394.5826-.7704.0072-.431-.2427-.7848-.5574-.7902z"/><path d="m10.7858 29.5662c-.0791-.0988-.2068-.0683-.3309-.0396-.0863.0198-.1852.0431-.2931.0414-.23194-.0036-.42795-.1042-.53764-.273-.14386-.2191-.13487-.5478.02337-.9231.02158-.0503.04676-.106.07373-.1688.25175-.5658.67614-1.5122.2014-2.4156-.35785-.6788-.94048-1.1027-1.64-1.1907-.67254-.0844-1.36486.1635-1.80543.6502-.69592.7668-.80562 1.8121-.67075 2.1802.04855.1347.12588.1724.18342.1796.11869.0162.29312-.07.40281-.3646.00719-.0215.01798-.0538.03057-.0951.04855-.1563.14026-.4472.28952-.6789.17982-.2802.46035-.4741.78943-.5442.33447-.0718.67793-.0072.96386.1796.48732.3197.67614.9159.46754 1.4852-.1079.2946-.28233.8585-.24456 1.3218.07732.9375.65456 1.3129 1.17425 1.3542.50348.0197.85598-.264.94588-.4706.0503-.1221.0054-.1957-.0234-.228z"/><path d="m39.8814 27.8528c-.0198-.0682-.1439-.5244-.3165-1.0739-.1726-.5496-.3489-.9375-.3489-.9375.6888-1.0309.7014-1.9522.6096-2.473-.0971-.6465-.3668-1.1979-.9117-1.7672-.543-.5693-1.6543-1.153-3.217-1.5912-.1781-.0502-.7679-.2119-.82-.228-.0036-.0342-.0432-1.9289-.0791-2.7442-.0252-.5891-.0774-1.5068-.3615-2.4119-.3399-1.2248-.9333-2.2952-1.6724-2.9812 2.041-2.11204 3.3142-4.43955 3.3124-6.43661-.0054-3.83967-4.7276-5.001634-10.5467-2.5951-.0054.00179-1.2246.51902-1.2336.52261-.0054-.00539-2.228-2.183838-2.2622-2.212572-6.6319-5.779268-27.37468 17.247972-20.74275 22.840472l1.44938 1.2266c-.37583.9734-.52329 2.0869-.4028 3.2848.15464 1.5391.94947 3.0153 2.23881 4.1539 1.22281 1.083 2.83044 1.7672 4.39132 1.7654 2.58044 5.9391 8.47694 9.583 15.39114 9.7878 7.416.2209 13.6415-3.256 16.2508-9.4987.1708-.4382.8955-2.4119.8955-4.1557 0-1.7492-.9908-2.4748-1.6238-2.4748zm-30.3436 4.6748c-.22478.0377-.45496.0539-.68693.0485-2.24061-.0593-4.65925-2.0743-4.90022-4.4629-.26614-2.64 1.08434-4.6712 3.47601-5.1543.28592-.0574.63118-.0915 1.00342-.0718 1.33969.0736 3.31412 1.1009 3.76552 4.0157.401 2.5825-.2338 5.2117-2.6578 5.6248zm-2.50136-11.1473c-1.48895.2892-2.80167 1.1315-3.60368 2.2952-.48013-.3987-1.37386-1.1727-1.53031-1.4744-1.280351-2.4299 1.39724-7.1532 3.26921-9.8201 4.62509-6.59103 11.86844-11.581891 15.22214-10.67675.5449.15445 2.3503 2.2449 2.3503 2.2449s-3.3519 1.85698-6.4611 4.44669c-4.1863 3.22186-7.35121 7.90386-9.24656 12.98446zm23.51206 10.1595c.0486-.0197.0827-.0754.0773-.1311-.0072-.0682-.0683-.1167-.1348-.1095 0 0-3.5084.519-6.8244-.6932.3615-1.1728 1.3217-.7489 2.7729-.6322 2.6165.1562 4.9596-.2263 6.6931-.722 1.5015-.431 3.4724-1.2787 5.0045-2.4855.5161 1.1332.6995 2.3796.6995 2.3796s.3992-.0719.7337.1347c.3165.1939.5467.598.3884 1.6396-.3219 1.9486-1.1509 3.5308-2.5445 4.9855-.8488.9123-1.8792 1.7061-3.057 2.2826-.6258.3287-1.293.6124-1.9961.8423-5.2544 1.7133-10.633-.1706-12.3665-4.2168-.1385-.3035-.2554-.6232-.3471-.9554-.739-2.667-.1115-5.8655 1.8486-7.8805 0 0 0 0 0-.0018.1205-.1275.2446-.2784.2446-.4687 0-.1599-.1007-.3269-.1888-.4454-.6852-.9932-3.0624-2.6867-2.5859-5.9643.3417-2.3544 2.4043-4.0121 4.3266-3.9133.1618.009.3255.018.4873.0287.8326.0485 1.5591.1563 2.246.185 1.1473.0503 2.1795-.1167 3.4023-1.135.4118-.343.7427-.6411 1.3019-.7345.0594-.0108.205-.0629.4981-.0485.2985.0162.5827.097.838.2676.9801.6519 1.1185 2.2287 1.1689 3.3817.0288.6591.1079 2.2521.1366 2.71.063 1.0453.3381 1.1943.8938 1.3775.3129.1024.6042.1796 1.0322.2999 1.2965.3646 2.0661.7328 2.5517 1.2069.2895.2963.4244.6106.4657.9105.1529 1.1135-.8667 2.4909-3.5641 3.7409-2.9491 1.3667-6.5276 1.7133-9.0002 1.4385-.1888-.0215-.8632-.0969-.8668-.0969-1.978-.2658-3.1055 2.2862-1.9187 4.0354.7643 1.1278 2.8484 1.8606 4.9326 1.8606 4.7797 0 8.4535-2.0384 9.8202-3.7984.0414-.0521.045-.0593.1097-.1563.0665-.1005.0126-.1562-.0719-.1005-1.1167.7632-6.0763 3.7912-11.3793 2.8806 0 0-.6438-.1059-1.2336-.334-.4676-.1814-1.4458-.6304-1.5645-1.6343 4.2744 1.32 6.97.07 6.97.07zm-6.7812-.7991s.0018 0 0 0c.0018.0018.0018.0018.0018.0035 0-.0017 0-.0035-.0018-.0035zm-8.1892-18.3867c1.6436-1.8982 3.6684-3.54689 5.4811-4.47358.0629-.03233.1294.03591.0953.09697-.1439.26041-.4208.81715-.5089 1.24098-.0144.06645.0575.11494.1133.07723 1.1275-.76865 3.0911-1.59118 4.8121-1.69714.0737-.00539.1096.08979.0503.13469-.2625.20114-.5485.47771-.7571.75788-.0359.04849-.0018.11673.0576.11673 1.2084.00898 2.9131.43102 4.0227 1.05241.0755.04131.0215.18678-.063.16882-1.6795-.38433-4.4308-.67706-7.2883.01975-2.5499.62136-4.4974 1.58036-5.918 2.61306-.0683.0539-.1546-.0395-.0971-.1078z"/></g></svg>